<svg id="svg" version="1.1" xmlns="http://www.w3.org/2000/svg" xmlns:xlink="http://www.w3.org/1999/xlink" width="400" height="400" viewBox="0, 0, 400,400"><g id="svgg"><path id="path0" d="M51.200 204.000 L 51.200 381.200 200.400 381.200 L 349.600 381.200 349.572 260.100 C 349.556 193.495,349.389 138.640,349.200 138.200 C 349.007 137.751,348.844 190.766,348.828 258.900 L 348.800 380.400 200.400 380.400 L 52.000 380.400 52.000 204.000 L 52.000 27.600 142.800 27.600 C 203.067 27.600,233.600 27.465,233.600 27.200 C 233.600 26.935,202.933 26.800,142.400 26.800 L 51.200 26.800 51.200 204.000 M235.073 28.021 C 234.929 28.560,234.808 52.805,234.805 81.900 L 234.800 134.800 290.976 134.800 C 327.996 134.800,347.237 134.664,347.400 134.400 C 347.564 134.134,328.871 134.000,291.624 134.000 L 235.600 134.000 235.600 81.315 L 235.600 28.630 237.500 30.458 C 251.564 43.986,347.200 133.812,347.200 133.493 C 347.200 133.306,252.947 44.235,239.600 31.810 C 237.510 29.864,235.695 27.996,235.567 27.658 C 235.394 27.200,235.268 27.293,235.073 28.021 M127.985 184.037 C 123.145 184.347,112.521 185.745,112.145 186.122 C 111.882 186.384,93.502 262.837,93.665 262.990 C 95.688 264.884,123.170 265.696,131.066 264.094 C 156.999 258.836,171.386 241.734,171.358 216.200 C 171.338 197.325,160.073 185.761,140.000 184.008 C 134.997 183.572,135.265 183.571,127.985 184.037 M140.708 199.403 C 149.286 201.426,153.200 206.972,153.200 217.105 C 153.200 235.867,142.828 247.927,124.860 250.055 C 121.447 250.459,115.060 250.393,114.615 249.948 C 114.287 249.620,126.450 199.417,126.932 199.110 C 127.792 198.563,138.071 198.781,140.708 199.403 M206.200 203.052 C 176.816 209.205,168.654 257.732,195.762 265.112 C 211.993 269.531,229.563 258.443,234.924 240.397 C 242.283 215.630,228.945 198.289,206.200 203.052 M273.200 203.188 C 256.479 206.788,245.458 221.323,245.442 239.800 C 245.426 256.862,254.473 265.764,271.800 265.739 C 277.948 265.730,279.618 265.462,285.528 263.539 L 288.056 262.716 287.842 261.258 C 287.725 260.456,287.423 257.460,287.172 254.600 C 286.631 248.430,287.007 249.047,284.358 249.978 C 270.964 254.686,263.003 250.220,263.007 238.000 C 263.012 221.555,275.024 212.624,289.705 218.150 L 292.253 219.109 295.137 212.498 C 296.723 208.862,297.944 205.811,297.851 205.718 C 295.254 203.121,280.531 201.610,273.200 203.188 M216.273 217.839 C 219.168 219.984,220.218 223.587,219.898 230.287 C 219.246 243.951,210.817 253.724,201.849 251.214 C 191.510 248.319,195.964 221.620,207.498 217.351 C 209.792 216.502,214.848 216.783,216.273 217.839 " stroke="none" fill="#040604" fill-rule="evenodd"></path><path id="path1" d="M235.600 81.530 L 235.600 134.000 291.295 134.000 L 346.989 134.000 345.195 132.256 C 343.097 130.218,238.266 31.467,236.674 30.030 L 235.600 29.061 235.600 81.530 " stroke="none" fill="#74bb6c" fill-rule="evenodd"></path><path id="path2" d="M52.000 204.000 L 52.000 380.400 200.401 380.400 L 348.801 380.400 348.701 257.700 L 348.600 135.000 291.700 134.899 L 234.800 134.797 234.800 81.199 L 234.800 27.600 143.400 27.600 L 52.000 27.600 52.000 204.000 M147.605 184.904 C 164.751 189.416,172.949 201.630,171.541 220.566 C 169.269 251.113,145.234 268.176,108.600 265.249 C 103.654 264.854,93.732 263.469,93.396 263.127 C 93.327 263.057,97.445 245.630,102.547 224.401 L 111.823 185.802 116.211 185.107 C 127.854 183.266,141.052 183.180,147.605 184.904 M128.509 199.065 C 126.950 199.231,126.788 199.360,126.426 200.723 C 125.476 204.297,114.800 249.211,114.800 249.634 C 114.800 250.457,126.768 249.850,130.600 248.833 C 143.520 245.403,151.288 235.677,152.798 221.038 C 154.467 204.866,145.992 197.198,128.509 199.065 M219.065 202.595 C 230.973 204.854,237.051 213.417,236.956 227.800 C 236.808 250.044,222.516 266.059,202.840 266.030 C 187.706 266.007,179.066 256.923,179.037 241.000 C 178.993 216.557,197.758 198.553,219.065 202.595 M287.071 202.421 C 290.280 202.853,295.932 204.423,297.453 205.305 C 298.297 205.795,298.276 205.870,295.524 212.200 C 292.135 219.995,292.723 219.437,289.152 218.238 C 274.007 213.154,262.521 222.528,263.283 239.352 C 263.551 245.264,265.022 248.243,268.600 250.115 C 271.795 251.787,280.557 251.398,285.417 249.367 L 286.765 248.804 286.965 250.102 C 287.298 252.248,288.002 260.097,288.001 261.637 L 288.000 263.074 284.500 264.138 C 261.882 271.012,245.169 260.841,245.169 240.202 C 245.169 215.749,263.474 199.244,287.071 202.421 M208.281 217.353 C 200.154 220.382,194.527 233.650,196.776 244.483 C 199.303 256.657,214.474 251.849,218.541 237.585 C 222.391 224.085,217.277 214.000,208.281 217.353 " stroke="none" fill="#04bb04" fill-rule="evenodd"></path><path id="path3" d="M212.500 202.287 C 213.105 202.378,214.095 202.378,214.700 202.287 C 215.305 202.195,214.810 202.120,213.600 202.120 C 212.390 202.120,211.895 202.195,212.500 202.287 M280.505 202.287 C 281.114 202.379,282.014 202.377,282.505 202.282 C 282.997 202.187,282.500 202.111,281.400 202.114 C 280.300 202.117,279.897 202.195,280.505 202.287 M268.575 221.700 L 267.400 223.000 268.700 221.825 C 269.415 221.179,270.000 220.594,270.000 220.525 C 270.000 220.216,269.670 220.488,268.575 221.700 M262.893 236.800 C 262.893 237.570,262.975 237.885,263.076 237.500 C 263.176 237.115,263.176 236.485,263.076 236.100 C 262.975 235.715,262.893 236.030,262.893 236.800 M143.578 241.900 L 142.200 243.400 143.700 242.022 C 145.096 240.738,145.384 240.400,145.078 240.400 C 145.012 240.400,144.337 241.075,143.578 241.900 M157.978 251.100 L 156.600 252.600 158.100 251.222 C 159.496 249.938,159.784 249.600,159.478 249.600 C 159.412 249.600,158.737 250.275,157.978 251.100 M118.307 250.290 C 119.026 250.379,120.106 250.377,120.707 250.286 C 121.308 250.195,120.720 250.122,119.400 250.124 C 118.080 250.126,117.588 250.201,118.307 250.290 M113.505 265.483 C 114.002 265.579,114.722 265.575,115.105 265.475 C 115.487 265.375,115.080 265.296,114.200 265.301 C 113.320 265.305,113.007 265.387,113.505 265.483 M118.305 265.483 C 118.802 265.579,119.522 265.575,119.905 265.475 C 120.287 265.375,119.880 265.296,119.000 265.301 C 118.120 265.305,117.807 265.387,118.305 265.483 " stroke="none" fill="#086f07" fill-rule="evenodd"></path><path id="path4" d="M233.600 27.171 C 233.600 27.407,233.855 27.600,234.167 27.600 C 234.478 27.600,234.835 27.825,234.960 28.100 C 235.084 28.375,235.142 28.242,235.088 27.805 C 234.988 26.989,233.600 26.397,233.600 27.171 M240.561 33.501 C 241.200 34.200,241.887 34.670,242.087 34.546 C 242.288 34.422,242.141 33.977,241.762 33.558 C 241.382 33.138,240.982 32.885,240.873 32.994 C 240.763 33.104,240.387 32.976,240.037 32.712 C 239.687 32.447,239.923 32.802,240.561 33.501 M247.850 40.452 C 248.440 41.068,249.088 41.469,249.291 41.344 C 249.779 41.042,248.156 39.333,247.382 39.333 C 246.955 39.333,247.092 39.661,247.850 40.452 M254.511 46.649 C 255.122 47.319,255.890 47.867,256.218 47.867 C 256.666 47.867,256.597 47.636,255.939 46.935 C 255.457 46.422,254.976 46.091,254.869 46.198 C 254.761 46.305,254.387 46.176,254.037 45.912 C 253.687 45.647,253.900 45.979,254.511 46.649 M261.761 53.501 C 262.400 54.200,263.087 54.670,263.287 54.546 C 263.488 54.422,263.341 53.977,262.962 53.558 C 262.582 53.138,262.182 52.885,262.073 52.994 C 261.963 53.104,261.587 52.976,261.237 52.712 C 260.887 52.447,261.123 52.802,261.761 53.501 M269.050 60.452 C 269.640 61.068,270.288 61.469,270.491 61.344 C 270.979 61.042,269.356 59.333,268.582 59.333 C 268.155 59.333,268.292 59.661,269.050 60.452 M275.761 66.701 C 276.400 67.400,277.087 67.870,277.287 67.746 C 277.488 67.622,277.341 67.177,276.962 66.758 C 276.582 66.338,276.182 66.085,276.073 66.194 C 275.963 66.304,275.587 66.176,275.237 65.912 C 274.887 65.647,275.123 66.002,275.761 66.701 M283.050 73.652 C 283.640 74.268,284.288 74.669,284.491 74.544 C 284.979 74.242,283.356 72.533,282.582 72.533 C 282.155 72.533,282.292 72.861,283.050 73.652 M290.250 80.452 C 290.840 81.068,291.488 81.469,291.691 81.344 C 292.179 81.042,290.556 79.333,289.782 79.333 C 289.355 79.333,289.492 79.661,290.250 80.452 M296.961 86.701 C 297.600 87.400,298.287 87.870,298.487 87.746 C 298.688 87.622,298.541 87.177,298.162 86.758 C 297.782 86.338,297.382 86.085,297.273 86.194 C 297.163 86.304,296.787 86.176,296.437 85.912 C 296.087 85.647,296.323 86.002,296.961 86.701 M304.250 93.652 C 304.840 94.268,305.488 94.669,305.691 94.544 C 306.179 94.242,304.556 92.533,303.782 92.533 C 303.355 92.533,303.492 92.861,304.250 93.652 M310.911 99.849 C 311.522 100.519,312.290 101.067,312.618 101.067 C 313.066 101.067,312.997 100.836,312.339 100.135 C 311.857 99.622,311.376 99.291,311.269 99.398 C 311.161 99.505,310.787 99.376,310.437 99.112 C 310.087 98.847,310.300 99.179,310.911 99.849 M318.161 106.701 C 318.800 107.400,319.487 107.870,319.687 107.746 C 319.888 107.622,319.741 107.177,319.362 106.758 C 318.982 106.338,318.582 106.085,318.473 106.194 C 318.363 106.304,317.987 106.176,317.637 105.912 C 317.287 105.647,317.523 106.002,318.161 106.701 M325.450 113.652 C 326.040 114.268,326.688 114.669,326.891 114.544 C 327.379 114.242,325.756 112.533,324.982 112.533 C 324.555 112.533,324.692 112.861,325.450 113.652 M332.161 119.901 C 332.800 120.600,333.487 121.070,333.687 120.946 C 333.888 120.822,333.741 120.377,333.362 119.958 C 332.982 119.538,332.582 119.285,332.473 119.394 C 332.363 119.504,331.987 119.376,331.637 119.112 C 331.287 118.847,331.523 119.202,332.161 119.901 M339.450 126.852 C 340.040 127.468,340.688 127.869,340.891 127.744 C 341.379 127.442,339.756 125.733,338.982 125.733 C 338.555 125.733,338.692 126.061,339.450 126.852 M346.512 133.426 C 347.082 133.916,347.454 134.413,347.338 134.529 C 347.163 134.703,347.751 134.657,348.800 134.415 C 348.910 134.390,348.402 134.109,347.672 133.792 C 346.941 133.474,346.438 133.062,346.554 132.874 C 346.670 132.687,346.474 132.533,346.120 132.533 C 345.643 132.533,345.746 132.767,346.512 133.426 M348.828 136.300 C 348.883 138.451,349.541 139.159,349.572 137.100 C 349.587 136.055,349.420 135.200,349.200 135.200 C 348.980 135.200,348.813 135.695,348.828 136.300 M130.900 183.876 C 131.285 183.976,131.915 183.976,132.300 183.876 C 132.685 183.775,132.370 183.693,131.600 183.693 C 130.830 183.693,130.515 183.775,130.900 183.876 M137.700 183.876 C 138.085 183.976,138.715 183.976,139.100 183.876 C 139.485 183.775,139.170 183.693,138.400 183.693 C 137.630 183.693,137.315 183.775,137.700 183.876 M255.978 212.300 L 254.600 213.800 256.100 212.422 C 257.496 211.138,257.784 210.800,257.478 210.800 C 257.412 210.800,256.737 211.475,255.978 212.300 M236.893 225.600 C 236.893 226.370,236.975 226.685,237.076 226.300 C 237.176 225.915,237.176 225.285,237.076 224.900 C 236.975 224.515,236.893 224.830,236.893 225.600 " stroke="none" fill="#545454" fill-rule="evenodd"></path><path id="path5" d="" stroke="none" fill="#547454" fill-rule="evenodd"></path><path id="path6" d="M250.800 258.125 C 250.800 258.194,251.385 258.779,252.100 259.425 L 253.400 260.600 252.225 259.300 C 251.130 258.088,250.800 257.816,250.800 258.125 " stroke="none" fill="#049004" fill-rule="evenodd"></path><path id="path7" d="" stroke="none" fill="#30a428" fill-rule="evenodd"></path><path id="path8" d="" stroke="none" fill="#04a42c" fill-rule="evenodd"></path></g></svg>