<svg id="svg" version="1.1" xmlns="http://www.w3.org/2000/svg" xmlns:xlink="http://www.w3.org/1999/xlink" width="400" height="400" viewBox="0, 0, 400,400"><g id="svgg"><path id="path0" d="M67.533 106.100 L 5.333 199.400 67.533 292.700 L 129.733 386.000 263.066 386.000 C 336.400 386.000,396.400 385.910,396.400 385.799 C 396.400 385.689,368.500 343.749,334.400 292.600 C 300.300 241.451,272.400 199.511,272.400 199.400 C 272.400 199.289,300.300 157.349,334.400 106.200 C 368.500 55.051,396.400 13.111,396.400 13.001 C 396.400 12.890,336.400 12.800,263.066 12.800 L 129.733 12.800 67.533 106.100 M333.200 46.801 C 333.200 47.021,310.370 81.446,282.466 123.301 L 231.732 199.400 282.439 275.400 C 310.328 317.200,333.158 351.625,333.173 351.900 C 333.195 352.299,314.414 352.398,240.500 352.388 L 147.800 352.377 97.000 276.137 C 69.060 234.206,46.200 199.674,46.200 199.400 C 46.200 199.126,69.060 164.594,97.000 122.663 L 147.800 46.423 240.500 46.412 C 302.164 46.404,333.200 46.534,333.200 46.801 " stroke="none" fill="#fcfcfc" fill-rule="evenodd"></path><path id="path1" d="M129.168 13.100 C 128.718 13.696,128.722 13.725,129.199 13.300 C 130.223 12.387,396.567 12.587,396.219 13.500 C 396.016 14.034,396.064 14.090,396.421 13.735 C 396.679 13.479,396.769 13.074,396.622 12.835 C 396.094 11.982,129.815 12.246,129.168 13.100 M147.549 47.100 C 147.062 47.721,147.073 47.743,147.643 47.298 C 148.155 46.899,167.087 46.817,240.705 46.898 C 291.535 46.954,333.040 46.865,332.938 46.700 C 332.481 45.961,148.131 46.358,147.549 47.100 M147.549 351.700 C 148.131 352.442,332.481 352.839,332.938 352.100 C 333.040 351.935,291.535 351.846,240.705 351.902 C 167.087 351.983,148.155 351.901,147.643 351.502 C 147.073 351.057,147.062 351.079,147.549 351.700 M396.219 385.300 C 396.567 386.213,130.223 386.413,129.199 385.500 C 128.722 385.075,128.718 385.104,129.168 385.700 C 129.815 386.554,396.094 386.818,396.622 385.965 C 396.769 385.726,396.679 385.321,396.421 385.065 C 396.064 384.710,396.016 384.766,396.219 385.300 " stroke="none" fill="#b6ef9a" fill-rule="evenodd"></path><path id="path2" d="" stroke="none" fill="#e4ece0" fill-rule="evenodd"></path><path id="path3" d="" stroke="none" fill="#f4f0100" fill-rule="evenodd"></path><path id="path4" d="" stroke="none" fill="#f4f0100" fill-rule="evenodd"></path><path id="path5" d="" stroke="none" fill="#f4f0100" fill-rule="evenodd"></path><path id="path6" d="" stroke="none" fill="#f4f0100" fill-rule="evenodd"></path><path id="path7" d="" stroke="none" fill="#f4f0100" fill-rule="evenodd"></path><path id="path8" d="" stroke="none" fill="#f4f0100" fill-rule="evenodd"></path></g></svg>