<svg id="svg" version="1.1" xmlns="http://www.w3.org/2000/svg" xmlns:xlink="http://www.w3.org/1999/xlink" width="400" height="400" viewBox="0, 0, 400,400"><g id="svgg"><path id="path0" d="M3.600 14.201 C 3.600 14.311,31.500 56.251,65.600 107.400 C 99.700 158.549,127.600 200.489,127.600 200.600 C 127.600 200.711,99.700 242.651,65.600 293.800 C 31.500 344.949,3.600 386.889,3.600 386.999 C 3.600 387.110,63.600 387.200,136.934 387.200 L 270.267 387.200 332.467 293.900 L 394.667 200.600 332.467 107.300 L 270.267 14.000 136.934 14.000 C 63.600 14.000,3.600 14.090,3.600 14.201 M303.000 123.863 C 330.940 165.794,353.800 200.326,353.800 200.600 C 353.800 200.874,330.940 235.406,303.000 277.337 L 252.200 353.577 159.500 353.588 C 85.586 353.598,66.805 353.499,66.827 353.100 C 66.842 352.825,89.672 318.400,117.561 276.600 L 168.268 200.600 117.534 124.501 C 89.630 82.646,66.800 48.221,66.800 48.001 C 66.800 47.734,97.836 47.604,159.500 47.612 L 252.200 47.623 303.000 123.863 " stroke="none" fill="#fcfcfc" fill-rule="evenodd"></path><path id="path1" d="M3.378 14.035 C 3.231 14.274,3.321 14.679,3.579 14.935 C 3.936 15.290,3.984 15.234,3.781 14.700 C 3.433 13.787,269.777 13.587,270.801 14.500 C 271.278 14.925,271.282 14.896,270.832 14.300 C 270.185 13.446,3.906 13.182,3.378 14.035 M67.062 47.900 C 66.960 48.065,108.465 48.154,159.295 48.098 C 232.913 48.017,251.845 48.099,252.357 48.498 C 252.927 48.943,252.938 48.921,252.451 48.300 C 251.869 47.558,67.519 47.161,67.062 47.900 M252.158 352.802 C 251.891 353.069,220.806 353.169,159.316 353.102 C 108.474 353.046,66.960 353.135,67.062 353.300 C 67.465 353.952,251.858 353.653,252.400 353.000 C 252.958 352.327,252.779 352.181,252.158 352.802 M3.400 386.400 C 3.264 386.620,3.264 386.980,3.400 387.200 C 3.908 388.021,270.209 387.723,270.832 386.900 C 271.282 386.304,271.278 386.275,270.801 386.700 C 269.876 387.525,3.428 387.425,3.745 386.600 C 4.004 385.923,3.777 385.791,3.400 386.400 " stroke="none" fill="#b7ee9c" fill-rule="evenodd"></path><path id="path2" d="" stroke="none" fill="#dcecd4" fill-rule="evenodd"></path><path id="path3" d="" stroke="none" fill="#e4ecdc" fill-rule="evenodd"></path><path id="path4" d="" stroke="none" fill="#ecf4ec" fill-rule="evenodd"></path><path id="path5" d="" stroke="none" fill="#f8100f0" fill-rule="evenodd"></path><path id="path6" d="" stroke="none" fill="#f8100f0" fill-rule="evenodd"></path><path id="path7" d="" stroke="none" fill="#f8100f0" fill-rule="evenodd"></path><path id="path8" d="" stroke="none" fill="#f8100f0" fill-rule="evenodd"></path></g></svg>